<?xml version="1.0" encoding="UTF-8"?>
<svg id="Layer_1" xmlns="http://www.w3.org/2000/svg" version="1.1" viewBox="0 0 841.89 595.28">
  <!-- Generator: Adobe Illustrator 29.6.1, SVG Export Plug-In . SVG Version: 2.1.1 Build 9)  -->
  <defs>
    <style>
      .st0 {
        fill: #235b4e;
      }
    </style>
  </defs>
  <path class="st0" d="M260.73,374.35c-2.08,2.71-3.44,4.51-9.72,4.51l-46.11-.24.23-31.22h42.12c2.58,0,4.57.63,5.59,1.78.53.59.78,1.32.69,2.03l-.09.73,4,.39.26-22.55-3.93-.38v.79c0,1.87-1.71,3.87-6.52,3.87l-42.36-.24.23-21.34h44.35c7.02,0,8.38,1.09,10.77,4.45l.27.38,3.82-.71-5.8-18.19-.6.08c-3.09.44-5.42.66-6.93.66l-72.23-.25-.43,3.31h.82c3.93,0,6.01,1.98,6.01,5.72v75.64c0,3.54-1.84,5.49-5.18,5.49-.18,0-.36,0-.54-.02l-.66-.04-.44,3.34h71.64c2.7,0,6.29.38,7.92.63l.59.09,6.37-18.22-3.86-.83-.28.36ZM155.39,389.27h.82l-.4,3.06h-27.92l-.22-.31c-8.35-11.98-16.61-26.9-19.83-35.77-1.92,0-8.26-.03-8.26-.03h-11.92l-.24,27.2c0,4.09,1.85,5.84,6.18,5.84h.82l-.44,3.31-33.12-.25.44-3.34.67.04c.24.01.47.02.7.02,3.57,0,5.02-1.63,5.02-5.62v-75.64c0-3.55-2.19-5.59-6.01-5.59h-.82l.43-3.31h1.23c2.6.01,8.53-.14,15.4-.32,8.65-.23,18.45-.48,23.86-.48,34.79,0,50.99,8.78,50.99,27.62,0,12.91-9.9,23.64-25.29,27.53,5.32,11.75,12.16,22.52,20.91,32.91,1.99,2.24,3.95,3.12,6.97,3.12ZM132.91,326.89c0-10.99-8.96-15.47-30.94-15.47-3.47,0-7,.16-11.09.35l-3.22.14-.22,31.44c4.41.32,11.79.32,16.76.32,18.25,0,28.71-6.12,28.71-16.79ZM780.93,389.27c-2.74,0-6.01-.92-6.01-5.32v-76.03c0-3.6,1.79-5.5,5.16-5.5.18,0,.37,0,.56.02l.67.05.43-3.34-26.4-.19-.14.55c-.5,2.02-1.62,4.3-3.17,6.42l-30.56,41.91-29.25-41.9c-1.72-2.51-2.7-4.59-2.92-6.17l-.09-.61-29-.26-.44,3.31h.82c1.41,0,6.01.42,6.01,5.85v75.77c0,3.62-1.55,5.23-5.04,5.23-.22,0-.45,0-.68-.02l-.67-.04-.44,3.34,32.77.26.43-3.31h-.82c-4.39,0-6.35-1.68-6.35-5.45l.24-56.76,34,48.49,4.24-5.42,31.39-43.26v57.08c0,3.33-1.82,5.1-5.28,5.1-.2,0-.41,0-.62-.02l-.66-.03-.44,3.34h32.64l.4-3.06h-.82ZM608.19,302.2h.82c4.1,0,6.18,1.57,6.18,4.66v59.3c0,9.5-9.34,14.94-25.64,14.94-17.92,0-27-5.12-27-15.2v-58.64c0-3.52,1.89-5.05,5.89-4.82l.67.04.44-3.33-33.12-.26-.43,3.31h.82c4.1,0,6.18,1.7,6.18,5.06v62.59c0,2.64-.19,5.73-1.58,8.72l-.26.55.5.34c13.51,9.32,26.15,15.11,47.38,15.11,17.1,0,30.99-4.47,46.44-14.94l.49-.33-.24-.55c-1.48-3.42-1.68-6.48-1.68-9.03v-63.25c0-3.52,3.16-4.05,5.04-4.05.23,0,.45,0,.69.02l.67.04.44-3.33-32.27-.26-.44,3.31ZM384.96,385.64l-.35-.71c-.93-1.9-1.33-4.09-1.33-7.31v-24.77c0-3.9,1.81-5.95,5.21-5.74l.67.04.44-3.33-32.09-.25-.44,3.3h.82c4.33,0,6.01,1.68,6.01,5.98l-.13,24.14c-5.34,2.5-12.01,3.72-20.38,3.72-23.53,0-37.58-13.22-37.58-35.37s13.73-34.45,36.73-34.45c19.09,0,26.53,5.38,29.26,8.59l.27.31,4.06-.7-5.19-21.05-.7.18c-1.12.29-3.39.78-6.02.78-1.11,0-2.71-.25-4.75-.56-3.84-.6-9.09-1.42-16.07-1.42-28.03,0-57.82,16.93-57.82,48.31s21.5,48.97,56.11,48.97c12.64,0,28.94-3.22,42.54-8.39l.74-.28ZM410.57,389.04c-.19,0-.39,0-.58-.02l-.67-.04-.44,3.33,31.24.26.44-3.31h-.82c-4.28,0-6.18-1.88-6.18-6.11l.24-57.02,55.93,59.96c1.24,1.44,2.79,3.78,3.06,5.61l.09.61h14.74v-84.41c0-3.54,1.9-5.5,5.34-5.5.18,0,.36,0,.55.02l.67.05.44-3.34-31.24-.26-.44,3.31h.82c3.07,0,6.18,1.92,6.18,5.58l-.24,51.28-50.15-53.19c-2.35-2.37-3.23-4.66-3.56-6.17l-.12-.56-26.56-.26-.44,3.31h.82c2.77,0,6.01,1.43,6.01,5.46v75.5c0,3.96-1.68,5.89-5.15,5.89ZM472.57,191.54c1.04.38,1.78,1.04,2.2,1.97l.03.06c1.67,3.83-3.8,20.84-11.12,42.67-1.4,4.18-2.34,7.37-3.17,10.18l-.68,2.3.38.04c.78.08,1.55.16,2.32.24l.19.02.1-.15c3.33-4.85,11.87-17.58,19.17-31.15,9.71-18.04,13.28-30.19,10.62-36.11-1.73-3.86-4.79-6.1-9.1-6.66-.7-.09-1.43-.14-2.22-.14-10.01,0-28.09,14.51-34.2,22.09l-.07.08-.09,3.02.47-.24c2.02-1.04,19.86-10.14,25.17-8.21ZM526.69,201.45h0c1.08.56,1.79,1.44,2.11,2.6,1.11,4.05-6.59,19.61-16.76,39.53l-.27.53c-2.53,4.95-4.71,9.23-6.2,12.39l-.16.33.36.1c.78.22,1.55.43,2.32.65l.18.05.13-.14c7.36-7.82,43.87-47.55,39.7-62.26-1.2-4.29-3.81-7.06-7.76-8.26-1.43-.43-3.08-.66-4.89-.67h-.15c-14.72,0-26.59,11.11-32.98,17.08l-.53.5-.08,2.69.44-.17c3.87-1.51,20.4-7.12,24.54-4.96ZM421.32,160.04c5.12,0,9.29-4.17,9.29-9.29s-4.17-9.29-9.29-9.29-9.29,4.17-9.29,9.29,4.17,9.29,9.29,9.29ZM334.37,257.64l.18-.05c.76-.22,1.53-.44,2.31-.65l.36-.1-.16-.33c-1.5-3.18-3.71-7.5-6.25-12.49l-.22-.43c-10.17-19.92-17.87-35.48-16.76-39.53.32-1.17,1.03-2.04,2.11-2.6,4.14-2.16,20.67,3.46,24.53,4.96l.44.17-.08-2.69-.52-.49c-6.39-5.98-18.26-17.09-32.99-17.09h-.15c-1.81,0-3.46.23-4.9.67-3.94,1.19-6.55,3.97-7.75,8.26-4.17,14.71,32.34,54.45,39.71,62.27l.13.14ZM418.28,236.89c.31,1.88.58,3.48.79,4.81l.85,5.14h2.41s.38,0,.38,0l.85-5.14c.24-1.53.56-3.4.94-5.66l.05-.33c6.64-39.95,7-56.86,6.85-62.28-.04-1.51-.14-2.69-.31-3.63-.26-1.5-.77-2.51-1.44-2.85-2.69-1.38-5.27-2.05-7.9-2.05h-.43s-.44,0-.44,0c-2.63,0-5.22.67-7.9,2.05-.66.34-1.17,1.35-1.44,2.85-.16.92-.27,2.14-.31,3.63-.15,5.42.21,22.34,6.85,62.28l.2,1.17ZM379.93,249.03l.18-.02c.77-.08,1.54-.16,2.32-.24l.37-.04-.66-2.24c-.83-2.82-1.78-6.03-3.19-10.24-7.32-21.84-12.79-38.84-11.12-42.67l.02-.05c.42-.94,1.17-1.61,2.21-1.99,5.32-1.94,23.16,7.17,25.17,8.21l.47.24-.09-3.02-.07-.08c-6.11-7.58-24.19-22.09-34.21-22.09-.79,0-1.51.04-2.21.14-4.31.56-7.37,2.8-9.1,6.66-6.2,13.79,23.73,58.45,29.79,67.26l.1.15Z"/>
</svg>